<svg xmlns="http://www.w3.org/2000/svg" xmlns:xlink="http://www.w3.org/1999/xlink" width="2000" zoomAndPan="magnify" viewBox="0 0 1500 1499.999933" height="2000" preserveAspectRatio="xMidYMid meet" version="1.0"><defs><g/><clipPath id="aeade5c19e"><rect x="0" width="141" y="0" height="35"/></clipPath><clipPath id="fb7df4abd2"><rect x="0" width="129" y="0" height="35"/></clipPath><clipPath id="211690d835"><rect x="0" width="183" y="0" height="36"/></clipPath><clipPath id="d6256a68f8"><rect x="0" width="111" y="0" height="36"/></clipPath><clipPath id="b27c1a1a92"><rect x="0" width="113" y="0" height="35"/></clipPath><clipPath id="511ff9f805"><rect x="0" width="175" y="0" height="35"/></clipPath></defs><rect x="-150" width="1800" fill="#ffffff" y="-149.999993" height="1799.99992" fill-opacity="1"/><rect x="-150" width="1800" fill="#000000" y="-149.999993" height="1799.99992" fill-opacity="1"/><g fill="#f6f4f0" fill-opacity="1"><g transform="translate(408.000292, 679.318779)"><g><path d="M 157.15625 -301.109375 C 177.988281 -301.109375 197.359375 -297.21875 215.265625 -289.4375 C 233.171875 -281.664062 249.019531 -270.804688 262.8125 -256.859375 C 276.601562 -242.921875 287.3125 -226.78125 294.9375 -208.4375 C 302.570312 -190.101562 306.390625 -170.367188 306.390625 -149.234375 C 306.390625 -128.097656 302.570312 -108.359375 294.9375 -90.015625 C 287.3125 -71.679688 276.601562 -55.539062 262.8125 -41.59375 C 249.019531 -27.65625 233.171875 -16.722656 215.265625 -8.796875 C 197.359375 -0.878906 177.988281 3.078125 157.15625 3.078125 C 136.613281 3.078125 117.316406 -0.878906 99.265625 -8.796875 C 81.222656 -16.722656 65.375 -27.65625 51.71875 -41.59375 C 38.070312 -55.539062 27.359375 -71.679688 19.578125 -90.015625 C 11.804688 -108.359375 7.921875 -128.097656 7.921875 -149.234375 C 7.921875 -170.367188 11.804688 -190.101562 19.578125 -208.4375 C 27.359375 -226.78125 38.070312 -242.921875 51.71875 -256.859375 C 65.375 -270.804688 81.222656 -281.664062 99.265625 -289.4375 C 117.316406 -297.21875 136.613281 -301.109375 157.15625 -301.109375 Z M 231.5625 -29.5 C 240.070312 -34.78125 244.398438 -44.976562 244.546875 -60.09375 C 244.691406 -75.207031 241.238281 -93.109375 234.1875 -113.796875 C 227.144531 -134.484375 216.726562 -155.6875 202.9375 -177.40625 C 189.4375 -199.414062 174.984375 -218.195312 159.578125 -233.75 C 144.171875 -249.3125 129.644531 -260.316406 116 -266.765625 C 102.351562 -273.222656 91.273438 -273.8125 82.765625 -268.53125 C 74.546875 -263.25 70.285156 -253.125 69.984375 -238.15625 C 69.691406 -223.1875 73.140625 -205.359375 80.328125 -184.671875 C 87.523438 -163.984375 97.875 -142.632812 111.375 -120.625 C 125.164062 -98.613281 139.765625 -79.828125 155.171875 -64.265625 C 170.578125 -48.710938 185.101562 -37.78125 198.75 -31.46875 C 212.40625 -25.164062 223.34375 -24.507812 231.5625 -29.5 Z M 231.5625 -29.5 "/></g></g></g><g fill="#f6f4f0" fill-opacity="1"><g transform="translate(774.70343, 679.318779)"><g><path d="M 196.78125 -22.890625 C 206.757812 -22.890625 213.945312 -24.578125 218.34375 -27.953125 C 222.75 -31.328125 225.316406 -35.285156 226.046875 -39.828125 C 226.785156 -44.378906 226.421875 -48.421875 224.953125 -51.953125 C 222.898438 -57.234375 219.378906 -61.632812 214.390625 -65.15625 C 209.398438 -68.675781 203.894531 -72.050781 197.875 -75.28125 C 191.863281 -78.507812 186.066406 -82.394531 180.484375 -86.9375 C 174.910156 -91.488281 170.289062 -97.285156 166.625 -104.328125 C 162.957031 -111.367188 161.125 -120.613281 161.125 -132.0625 L 161.125 -298.46875 L 257.09375 -298.46875 L 257.09375 -92.890625 C 257.09375 -74.109375 253.789062 -58.476562 247.1875 -46 C 240.582031 -33.53125 232.066406 -23.695312 221.640625 -16.5 C 211.222656 -9.3125 200 -4.25 187.96875 -1.3125 C 175.9375 1.613281 164.492188 3.078125 153.640625 3.078125 C 126.347656 3.078125 101.914062 -2.054688 80.34375 -12.328125 C 58.769531 -22.597656 41.742188 -36.679688 29.265625 -54.578125 C 16.796875 -72.484375 10.5625 -92.585938 10.5625 -114.890625 L 10.5625 -298.46875 L 106.53125 -298.46875 L 106.53125 -154.953125 C 106.53125 -128.242188 108.878906 -104.984375 113.578125 -85.171875 C 118.273438 -65.367188 127.078125 -50.035156 139.984375 -39.171875 C 152.898438 -28.316406 171.832031 -22.890625 196.78125 -22.890625 Z M 196.78125 -22.890625 "/></g></g></g><g fill="#f6f4f0" fill-opacity="1"><g transform="translate(442.347945, 1040.068748)"><g><path d="M 112.703125 -143.953125 L 112.703125 -154.078125 C 127.960938 -154.078125 140.359375 -157.523438 149.890625 -164.421875 C 159.429688 -171.316406 164.203125 -181.070312 164.203125 -193.6875 C 164.203125 -206.3125 157.304688 -220.988281 143.515625 -237.71875 C 133.535156 -250.632812 121.796875 -260.171875 108.296875 -266.328125 C 94.796875 -272.492188 82.320312 -275.578125 70.875 -275.578125 C 60.894531 -275.578125 53.703125 -273.890625 49.296875 -270.515625 C 44.898438 -267.140625 42.332031 -263.25 41.59375 -258.84375 C 40.863281 -254.445312 41.234375 -250.335938 42.703125 -246.515625 C 44.753906 -241.234375 48.273438 -236.90625 53.265625 -233.53125 C 58.253906 -230.15625 63.753906 -226.78125 69.765625 -223.40625 C 75.785156 -220.03125 81.582031 -216.140625 87.15625 -211.734375 C 92.738281 -207.335938 97.363281 -201.546875 101.03125 -194.359375 C 104.695312 -187.171875 106.53125 -177.851562 106.53125 -166.40625 L 106.53125 0 L 10.125 0 L 10.125 -206.015625 C 10.125 -225.097656 13.425781 -240.800781 20.03125 -253.125 C 26.632812 -265.445312 35.21875 -275.128906 45.78125 -282.171875 C 56.34375 -289.222656 67.640625 -294.210938 79.671875 -297.140625 C 91.710938 -300.078125 103.160156 -301.546875 114.015625 -301.546875 C 141.597656 -301.546875 166.101562 -298.535156 187.53125 -292.515625 C 208.957031 -286.503906 225.90625 -277.628906 238.375 -265.890625 C 250.851562 -254.148438 257.09375 -239.625 257.09375 -222.3125 C 257.09375 -204.113281 250.117188 -189.144531 236.171875 -177.40625 C 222.234375 -165.664062 203.523438 -157.15625 180.046875 -151.875 C 190.609375 -148.644531 201.03125 -142.1875 211.3125 -132.5 C 218.9375 -124.875 224.726562 -117.023438 228.6875 -108.953125 C 232.65625 -100.878906 235.664062 -93.097656 237.71875 -85.609375 C 239.769531 -78.128906 241.820312 -71.304688 243.875 -65.140625 C 245.9375 -58.984375 248.875 -54 252.6875 -50.1875 C 260.3125 -42.550781 267.863281 -39.539062 275.34375 -41.15625 C 282.832031 -42.769531 289.953125 -47.097656 296.703125 -54.140625 L 303.75 -47.109375 C 296.414062 -37.421875 287.171875 -28.539062 276.015625 -20.46875 C 264.859375 -12.394531 252.820312 -6.378906 239.90625 -2.421875 C 227 1.535156 213.941406 2.269531 200.734375 -0.21875 C 187.535156 -2.71875 175.210938 -9.6875 163.765625 -21.125 C 156.128906 -28.757812 151.359375 -37.125 149.453125 -46.21875 C 147.546875 -55.320312 147.101562 -64.421875 148.125 -73.515625 C 149.15625 -82.609375 150.332031 -91.410156 151.65625 -99.921875 C 152.976562 -108.441406 153.125 -116 152.09375 -122.59375 C 151.070312 -129.195312 147.695312 -134.40625 141.96875 -138.21875 C 136.25 -142.039062 126.492188 -143.953125 112.703125 -143.953125 Z M 112.703125 -143.953125 "/></g></g></g><g fill="#f6f4f0" fill-opacity="1"><g transform="translate(759.746553, 1040.068748)"><g><path d="M 7.921875 -210.859375 C 7.921875 -227.003906 12.25 -241.898438 20.90625 -255.546875 C 29.5625 -269.191406 41.300781 -280.195312 56.125 -288.5625 C 70.945312 -296.925781 87.601562 -301.109375 106.09375 -301.109375 C 116.945312 -301.109375 126.628906 -299.421875 135.140625 -296.046875 C 143.648438 -292.671875 151.351562 -288.707031 158.25 -284.15625 C 165.15625 -279.613281 171.539062 -275.65625 177.40625 -272.28125 C 183.28125 -268.90625 188.859375 -267.21875 194.140625 -267.21875 C 205.285156 -267.21875 212.472656 -270.078125 215.703125 -275.796875 C 218.929688 -281.515625 220.546875 -289.21875 220.546875 -298.90625 L 230.671875 -298.90625 C 232.140625 -286.875 232.285156 -274.472656 231.109375 -261.703125 C 229.941406 -248.941406 226.710938 -237.128906 221.421875 -226.265625 C 216.140625 -215.410156 208.363281 -206.609375 198.09375 -199.859375 C 187.820312 -193.109375 174.46875 -189.734375 158.03125 -189.734375 C 147.175781 -189.734375 137.566406 -192.15625 129.203125 -197 C 120.835938 -201.84375 113.28125 -207.859375 106.53125 -215.046875 C 99.78125 -222.234375 93.691406 -229.566406 88.265625 -237.046875 C 82.835938 -244.535156 77.554688 -250.992188 72.421875 -256.421875 C 67.285156 -261.859375 62 -265.160156 56.5625 -266.328125 C 51.132812 -267.503906 45.191406 -265.453125 38.734375 -260.171875 C 31.691406 -254.296875 30.59375 -247.03125 35.4375 -238.375 C 40.28125 -229.71875 50.476562 -220.910156 66.03125 -211.953125 C 81.582031 -203.003906 101.6875 -195.007812 126.34375 -187.96875 C 135.738281 -185.332031 146.816406 -181.59375 159.578125 -176.75 C 172.347656 -171.90625 184.894531 -165.59375 197.21875 -157.8125 C 209.539062 -150.039062 219.8125 -140.578125 228.03125 -129.421875 C 236.25 -118.273438 240.359375 -105.066406 240.359375 -89.796875 C 240.359375 -73.367188 235.957031 -58.109375 227.15625 -44.015625 C 218.351562 -29.929688 206.46875 -18.5625 191.5 -9.90625 C 176.53125 -1.25 159.507812 3.078125 140.4375 3.078125 C 129.570312 3.078125 119.585938 1.316406 110.484375 -2.203125 C 101.390625 -5.722656 93.023438 -9.679688 85.390625 -14.078125 C 77.765625 -18.484375 70.722656 -22.445312 64.265625 -25.96875 C 57.816406 -29.488281 51.800781 -31.25 46.21875 -31.25 C 35.363281 -31.25 28.25 -28.390625 24.875 -22.671875 C 21.5 -16.953125 19.8125 -9.25 19.8125 0.4375 L 10.125 0.4375 C 8.363281 -11.59375 8.144531 -23.988281 9.46875 -36.75 C 10.789062 -49.519531 14.09375 -61.332031 19.375 -72.1875 C 24.65625 -83.050781 32.429688 -91.859375 42.703125 -98.609375 C 52.972656 -105.359375 66.179688 -108.734375 82.328125 -108.734375 C 93.179688 -108.734375 103.007812 -106.3125 111.8125 -101.46875 C 120.613281 -96.625 128.609375 -90.535156 135.796875 -83.203125 C 142.992188 -75.867188 149.671875 -68.457031 155.828125 -60.96875 C 161.992188 -53.488281 167.863281 -47.03125 173.4375 -41.59375 C 179.019531 -36.164062 184.597656 -32.863281 190.171875 -31.6875 C 195.742188 -30.519531 201.613281 -32.578125 207.78125 -37.859375 C 214.820312 -44.023438 215.1875 -51.65625 208.875 -60.75 C 202.570312 -69.84375 191.128906 -79.085938 174.546875 -88.484375 C 157.960938 -97.878906 137.195312 -106.242188 112.25 -113.578125 C 92.300781 -119.441406 74.398438 -126.1875 58.546875 -133.8125 C 42.703125 -141.445312 30.300781 -151.351562 21.34375 -163.53125 C 12.394531 -175.71875 7.921875 -191.492188 7.921875 -210.859375 Z M 7.921875 -210.859375 "/></g></g></g><g transform="matrix(1, 0, 0, 1, 451, 1098)"><g clip-path="url(#aeade5c19e)"><g fill="#f6f4f0" fill-opacity="1"><g transform="translate(0.824604, 26.274979)"><g><path d="M 8.765625 0 L 5.140625 0 L 5.140625 -14.109375 L 0.484375 -14.109375 L 0.484375 -17.140625 L 13.421875 -17.140625 L 13.421875 -14.109375 L 8.765625 -14.109375 Z M 8.765625 0 "/></g></g></g><g fill="#f6f4f0" fill-opacity="1"><g transform="translate(13.546992, 26.274979)"><g><path d="M 12.640625 0 L 11.40625 -4.078125 L 5.15625 -4.078125 L 3.921875 0 L 0 0 L 6.046875 -17.203125 L 10.484375 -17.203125 L 16.5625 0 Z M 10.53125 -7.125 L 9.296875 -11.109375 C 9.210938 -11.378906 9.109375 -11.722656 8.984375 -12.140625 C 8.859375 -12.554688 8.726562 -12.976562 8.59375 -13.40625 C 8.46875 -13.84375 8.363281 -14.222656 8.28125 -14.546875 C 8.207031 -14.222656 8.101562 -13.820312 7.96875 -13.34375 C 7.832031 -12.875 7.703125 -12.425781 7.578125 -12 C 7.453125 -11.582031 7.359375 -11.285156 7.296875 -11.109375 L 6.078125 -7.125 Z M 10.53125 -7.125 "/></g></g></g><g fill="#f6f4f0" fill-opacity="1"><g transform="translate(28.929526, 26.274979)"><g><path d="M 17.359375 0 L 12.734375 0 L 5.28125 -12.96875 L 5.1875 -12.96875 C 5.21875 -12.425781 5.242188 -11.878906 5.265625 -11.328125 C 5.285156 -10.785156 5.304688 -10.242188 5.328125 -9.703125 C 5.359375 -9.160156 5.382812 -8.613281 5.40625 -8.0625 L 5.40625 0 L 2.15625 0 L 2.15625 -17.140625 L 6.734375 -17.140625 L 14.1875 -4.296875 L 14.265625 -4.296875 C 14.242188 -4.828125 14.222656 -5.351562 14.203125 -5.875 C 14.179688 -6.40625 14.160156 -6.929688 14.140625 -7.453125 C 14.117188 -7.972656 14.101562 -8.5 14.09375 -9.03125 L 14.09375 -17.140625 L 17.359375 -17.140625 Z M 17.359375 0 "/></g></g></g><g fill="#f6f4f0" fill-opacity="1"><g transform="translate(47.265172, 26.274979)"><g><path d="M 8.65625 -9.625 L 15.453125 -9.625 L 15.453125 -0.734375 C 14.554688 -0.441406 13.625 -0.207031 12.65625 -0.03125 C 11.6875 0.144531 10.585938 0.234375 9.359375 0.234375 C 7.660156 0.234375 6.21875 -0.0976562 5.03125 -0.765625 C 3.84375 -1.441406 2.9375 -2.4375 2.3125 -3.75 C 1.695312 -5.0625 1.390625 -6.675781 1.390625 -8.59375 C 1.390625 -10.382812 1.734375 -11.9375 2.421875 -13.25 C 3.117188 -14.5625 4.132812 -15.578125 5.46875 -16.296875 C 6.800781 -17.015625 8.425781 -17.375 10.34375 -17.375 C 11.25 -17.375 12.144531 -17.273438 13.03125 -17.078125 C 13.914062 -16.890625 14.71875 -16.640625 15.4375 -16.328125 L 14.234375 -13.421875 C 13.703125 -13.679688 13.097656 -13.898438 12.421875 -14.078125 C 11.753906 -14.265625 11.054688 -14.359375 10.328125 -14.359375 C 9.273438 -14.359375 8.359375 -14.113281 7.578125 -13.625 C 6.796875 -13.144531 6.191406 -12.46875 5.765625 -11.59375 C 5.347656 -10.726562 5.140625 -9.703125 5.140625 -8.515625 C 5.140625 -7.398438 5.289062 -6.410156 5.59375 -5.546875 C 5.894531 -4.679688 6.375 -4.003906 7.03125 -3.515625 C 7.6875 -3.035156 8.539062 -2.796875 9.59375 -2.796875 C 10.113281 -2.796875 10.550781 -2.816406 10.90625 -2.859375 C 11.257812 -2.910156 11.59375 -2.96875 11.90625 -3.03125 L 11.90625 -6.59375 L 8.65625 -6.59375 Z M 8.65625 -9.625 "/></g></g></g><g fill="#f6f4f0" fill-opacity="1"><g transform="translate(63.468015, 26.274979)"><g><path d="M 12.03125 0 L 2.15625 0 L 2.15625 -17.140625 L 12.03125 -17.140625 L 12.03125 -14.15625 L 5.796875 -14.15625 L 5.796875 -10.390625 L 11.59375 -10.390625 L 11.59375 -7.421875 L 5.796875 -7.421875 L 5.796875 -3 L 12.03125 -3 Z M 12.03125 0 "/></g></g></g><g fill="#f6f4f0" fill-opacity="1"><g transform="translate(75.733374, 26.274979)"><g><path d="M 7.15625 -17.140625 C 8.707031 -17.140625 9.988281 -16.953125 11 -16.578125 C 12.007812 -16.203125 12.757812 -15.632812 13.25 -14.875 C 13.75 -14.113281 14 -13.15625 14 -12 C 14 -11.21875 13.847656 -10.535156 13.546875 -9.953125 C 13.253906 -9.367188 12.863281 -8.875 12.375 -8.46875 C 11.894531 -8.0625 11.375 -7.726562 10.8125 -7.46875 L 15.84375 0 L 11.8125 0 L 7.71875 -6.578125 L 5.796875 -6.578125 L 5.796875 0 L 2.15625 0 L 2.15625 -17.140625 Z M 6.890625 -14.15625 L 5.796875 -14.15625 L 5.796875 -9.53125 L 6.96875 -9.53125 C 8.164062 -9.53125 9.023438 -9.726562 9.546875 -10.125 C 10.066406 -10.53125 10.328125 -11.125 10.328125 -11.90625 C 10.328125 -12.71875 10.046875 -13.296875 9.484375 -13.640625 C 8.929688 -13.984375 8.066406 -14.15625 6.890625 -14.15625 Z M 6.890625 -14.15625 "/></g></g></g><g fill="#f6f4f0" fill-opacity="1"><g transform="translate(90.401067, 26.274979)"><g><path d="M 12.640625 0 L 11.40625 -4.078125 L 5.15625 -4.078125 L 3.921875 0 L 0 0 L 6.046875 -17.203125 L 10.484375 -17.203125 L 16.5625 0 Z M 10.53125 -7.125 L 9.296875 -11.109375 C 9.210938 -11.378906 9.109375 -11.722656 8.984375 -12.140625 C 8.859375 -12.554688 8.726562 -12.976562 8.59375 -13.40625 C 8.46875 -13.84375 8.363281 -14.222656 8.28125 -14.546875 C 8.207031 -14.222656 8.101562 -13.820312 7.96875 -13.34375 C 7.832031 -12.875 7.703125 -12.425781 7.578125 -12 C 7.453125 -11.582031 7.359375 -11.285156 7.296875 -11.109375 L 6.078125 -7.125 Z M 10.53125 -7.125 "/></g></g></g><g fill="#f6f4f0" fill-opacity="1"><g transform="translate(105.783601, 26.274979)"><g><path d="M 17.359375 0 L 12.734375 0 L 5.28125 -12.96875 L 5.1875 -12.96875 C 5.21875 -12.425781 5.242188 -11.878906 5.265625 -11.328125 C 5.285156 -10.785156 5.304688 -10.242188 5.328125 -9.703125 C 5.359375 -9.160156 5.382812 -8.613281 5.40625 -8.0625 L 5.40625 0 L 2.15625 0 L 2.15625 -17.140625 L 6.734375 -17.140625 L 14.1875 -4.296875 L 14.265625 -4.296875 C 14.242188 -4.828125 14.222656 -5.351562 14.203125 -5.875 C 14.179688 -6.40625 14.160156 -6.929688 14.140625 -7.453125 C 14.117188 -7.972656 14.101562 -8.5 14.09375 -9.03125 L 14.09375 -17.140625 L 17.359375 -17.140625 Z M 17.359375 0 "/></g></g></g><g fill="#f6f4f0" fill-opacity="1"><g transform="translate(124.119247, 26.274979)"><g><path d="M 8.65625 -9.625 L 15.453125 -9.625 L 15.453125 -0.734375 C 14.554688 -0.441406 13.625 -0.207031 12.65625 -0.03125 C 11.6875 0.144531 10.585938 0.234375 9.359375 0.234375 C 7.660156 0.234375 6.21875 -0.0976562 5.03125 -0.765625 C 3.84375 -1.441406 2.9375 -2.4375 2.3125 -3.75 C 1.695312 -5.0625 1.390625 -6.675781 1.390625 -8.59375 C 1.390625 -10.382812 1.734375 -11.9375 2.421875 -13.25 C 3.117188 -14.5625 4.132812 -15.578125 5.46875 -16.296875 C 6.800781 -17.015625 8.425781 -17.375 10.34375 -17.375 C 11.25 -17.375 12.144531 -17.273438 13.03125 -17.078125 C 13.914062 -16.890625 14.71875 -16.640625 15.4375 -16.328125 L 14.234375 -13.421875 C 13.703125 -13.679688 13.097656 -13.898438 12.421875 -14.078125 C 11.753906 -14.265625 11.054688 -14.359375 10.328125 -14.359375 C 9.273438 -14.359375 8.359375 -14.113281 7.578125 -13.625 C 6.796875 -13.144531 6.191406 -12.46875 5.765625 -11.59375 C 5.347656 -10.726562 5.140625 -9.703125 5.140625 -8.515625 C 5.140625 -7.398438 5.289062 -6.410156 5.59375 -5.546875 C 5.894531 -4.679688 6.375 -4.003906 7.03125 -3.515625 C 7.6875 -3.035156 8.539062 -2.796875 9.59375 -2.796875 C 10.113281 -2.796875 10.550781 -2.816406 10.90625 -2.859375 C 11.257812 -2.910156 11.59375 -2.96875 11.90625 -3.03125 L 11.90625 -6.59375 L 8.65625 -6.59375 Z M 8.65625 -9.625 "/></g></g></g></g></g><g transform="matrix(1, 0, 0, 1, 844, 1098)"><g clip-path="url(#fb7df4abd2)"><g fill="#f6f4f0" fill-opacity="1"><g transform="translate(0.156015, 26.274979)"><g><path d="M 12.265625 -4.765625 C 12.265625 -3.742188 12.019531 -2.859375 11.53125 -2.109375 C 11.039062 -1.359375 10.320312 -0.78125 9.375 -0.375 C 8.4375 0.03125 7.296875 0.234375 5.953125 0.234375 C 5.359375 0.234375 4.773438 0.191406 4.203125 0.109375 C 3.640625 0.0351562 3.097656 -0.0703125 2.578125 -0.21875 C 2.066406 -0.375 1.578125 -0.566406 1.109375 -0.796875 L 1.109375 -4.171875 C 1.921875 -3.816406 2.765625 -3.492188 3.640625 -3.203125 C 4.515625 -2.910156 5.378906 -2.765625 6.234375 -2.765625 C 6.828125 -2.765625 7.304688 -2.84375 7.671875 -3 C 8.035156 -3.15625 8.296875 -3.367188 8.453125 -3.640625 C 8.617188 -3.921875 8.703125 -4.234375 8.703125 -4.578125 C 8.703125 -5.015625 8.554688 -5.382812 8.265625 -5.6875 C 7.984375 -5.988281 7.585938 -6.269531 7.078125 -6.53125 C 6.578125 -6.800781 6.007812 -7.085938 5.375 -7.390625 C 4.976562 -7.578125 4.546875 -7.804688 4.078125 -8.078125 C 3.609375 -8.347656 3.160156 -8.675781 2.734375 -9.0625 C 2.316406 -9.457031 1.972656 -9.929688 1.703125 -10.484375 C 1.429688 -11.046875 1.296875 -11.71875 1.296875 -12.5 C 1.296875 -13.53125 1.53125 -14.40625 2 -15.125 C 2.46875 -15.851562 3.140625 -16.410156 4.015625 -16.796875 C 4.890625 -17.179688 5.921875 -17.375 7.109375 -17.375 C 7.992188 -17.375 8.835938 -17.269531 9.640625 -17.0625 C 10.453125 -16.863281 11.300781 -16.566406 12.1875 -16.171875 L 11.015625 -13.34375 C 10.222656 -13.664062 9.515625 -13.914062 8.890625 -14.09375 C 8.265625 -14.269531 7.628906 -14.359375 6.984375 -14.359375 C 6.535156 -14.359375 6.148438 -14.285156 5.828125 -14.140625 C 5.503906 -13.992188 5.257812 -13.789062 5.09375 -13.53125 C 4.9375 -13.269531 4.859375 -12.96875 4.859375 -12.625 C 4.859375 -12.21875 4.972656 -11.875 5.203125 -11.59375 C 5.441406 -11.320312 5.800781 -11.054688 6.28125 -10.796875 C 6.769531 -10.535156 7.375 -10.234375 8.09375 -9.890625 C 8.96875 -9.472656 9.710938 -9.039062 10.328125 -8.59375 C 10.953125 -8.144531 11.429688 -7.617188 11.765625 -7.015625 C 12.097656 -6.410156 12.265625 -5.660156 12.265625 -4.765625 Z M 12.265625 -4.765625 "/></g></g></g><g fill="#f6f4f0" fill-opacity="1"><g transform="translate(12.198719, 26.274979)"><g><path d="M 9.4375 -14.359375 C 8.738281 -14.359375 8.117188 -14.222656 7.578125 -13.953125 C 7.046875 -13.679688 6.597656 -13.289062 6.234375 -12.78125 C 5.878906 -12.28125 5.609375 -11.671875 5.421875 -10.953125 C 5.234375 -10.234375 5.140625 -9.421875 5.140625 -8.515625 C 5.140625 -7.304688 5.285156 -6.273438 5.578125 -5.421875 C 5.878906 -4.566406 6.347656 -3.914062 6.984375 -3.46875 C 7.617188 -3.019531 8.4375 -2.796875 9.4375 -2.796875 C 10.132812 -2.796875 10.832031 -2.875 11.53125 -3.03125 C 12.226562 -3.1875 12.988281 -3.40625 13.8125 -3.6875 L 13.8125 -0.640625 C 13.050781 -0.328125 12.300781 -0.101562 11.5625 0.03125 C 10.832031 0.164062 10.007812 0.234375 9.09375 0.234375 C 7.332031 0.234375 5.878906 -0.128906 4.734375 -0.859375 C 3.597656 -1.585938 2.753906 -2.609375 2.203125 -3.921875 C 1.660156 -5.242188 1.390625 -6.785156 1.390625 -8.546875 C 1.390625 -9.835938 1.566406 -11.019531 1.921875 -12.09375 C 2.273438 -13.175781 2.789062 -14.113281 3.46875 -14.90625 C 4.144531 -15.695312 4.984375 -16.304688 5.984375 -16.734375 C 6.984375 -17.160156 8.132812 -17.375 9.4375 -17.375 C 10.289062 -17.375 11.144531 -17.265625 12 -17.046875 C 12.851562 -16.835938 13.671875 -16.546875 14.453125 -16.171875 L 13.28125 -13.21875 C 12.632812 -13.519531 11.988281 -13.785156 11.34375 -14.015625 C 10.695312 -14.242188 10.0625 -14.359375 9.4375 -14.359375 Z M 9.4375 -14.359375 "/></g></g></g><g fill="#f6f4f0" fill-opacity="1"><g transform="translate(26.315633, 26.274979)"><g><path d="M 16.109375 -17.140625 L 16.109375 -6.046875 C 16.109375 -4.867188 15.847656 -3.804688 15.328125 -2.859375 C 14.804688 -1.910156 14.019531 -1.15625 12.96875 -0.59375 C 11.914062 -0.0390625 10.59375 0.234375 9 0.234375 C 6.738281 0.234375 5.015625 -0.34375 3.828125 -1.5 C 2.640625 -2.65625 2.046875 -4.1875 2.046875 -6.09375 L 2.046875 -17.140625 L 5.65625 -17.140625 L 5.65625 -6.640625 C 5.65625 -5.234375 5.941406 -4.242188 6.515625 -3.671875 C 7.097656 -3.097656 7.957031 -2.8125 9.09375 -2.8125 C 9.894531 -2.8125 10.539062 -2.945312 11.03125 -3.21875 C 11.53125 -3.5 11.894531 -3.921875 12.125 -4.484375 C 12.363281 -5.054688 12.484375 -5.785156 12.484375 -6.671875 L 12.484375 -17.140625 Z M 16.109375 -17.140625 "/></g></g></g><g fill="#f6f4f0" fill-opacity="1"><g transform="translate(43.280192, 26.274979)"><g><path d="M 2.15625 0 L 2.15625 -17.140625 L 5.796875 -17.140625 L 5.796875 -3 L 12.734375 -3 L 12.734375 0 Z M 2.15625 0 "/></g></g></g><g fill="#f6f4f0" fill-opacity="1"><g transform="translate(55.662738, 26.274979)"><g><path d="M 7.625 -17.140625 C 9.84375 -17.140625 11.457031 -16.660156 12.46875 -15.703125 C 13.488281 -14.753906 14 -13.453125 14 -11.796875 C 14 -11.046875 13.882812 -10.328125 13.65625 -9.640625 C 13.425781 -8.953125 13.054688 -8.34375 12.546875 -7.8125 C 12.035156 -7.28125 11.351562 -6.859375 10.5 -6.546875 C 9.644531 -6.242188 8.59375 -6.09375 7.34375 -6.09375 L 5.796875 -6.09375 L 5.796875 0 L 2.15625 0 L 2.15625 -17.140625 Z M 7.4375 -14.15625 L 5.796875 -14.15625 L 5.796875 -9.078125 L 6.984375 -9.078125 C 7.660156 -9.078125 8.25 -9.164062 8.75 -9.34375 C 9.25 -9.519531 9.632812 -9.800781 9.90625 -10.1875 C 10.1875 -10.570312 10.328125 -11.0625 10.328125 -11.65625 C 10.328125 -12.5 10.09375 -13.125 9.625 -13.53125 C 9.15625 -13.945312 8.425781 -14.15625 7.4375 -14.15625 Z M 7.4375 -14.15625 "/></g></g></g><g fill="#f6f4f0" fill-opacity="1"><g transform="translate(69.556997, 26.274979)"><g><path d="M 8.765625 0 L 5.140625 0 L 5.140625 -14.109375 L 0.484375 -14.109375 L 0.484375 -17.140625 L 13.421875 -17.140625 L 13.421875 -14.109375 L 8.765625 -14.109375 Z M 8.765625 0 "/></g></g></g><g fill="#f6f4f0" fill-opacity="1"><g transform="translate(82.279385, 26.274979)"><g><path d="M 16.109375 -17.140625 L 16.109375 -6.046875 C 16.109375 -4.867188 15.847656 -3.804688 15.328125 -2.859375 C 14.804688 -1.910156 14.019531 -1.15625 12.96875 -0.59375 C 11.914062 -0.0390625 10.59375 0.234375 9 0.234375 C 6.738281 0.234375 5.015625 -0.34375 3.828125 -1.5 C 2.640625 -2.65625 2.046875 -4.1875 2.046875 -6.09375 L 2.046875 -17.140625 L 5.65625 -17.140625 L 5.65625 -6.640625 C 5.65625 -5.234375 5.941406 -4.242188 6.515625 -3.671875 C 7.097656 -3.097656 7.957031 -2.8125 9.09375 -2.8125 C 9.894531 -2.8125 10.539062 -2.945312 11.03125 -3.21875 C 11.53125 -3.5 11.894531 -3.921875 12.125 -4.484375 C 12.363281 -5.054688 12.484375 -5.785156 12.484375 -6.671875 L 12.484375 -17.140625 Z M 16.109375 -17.140625 "/></g></g></g><g fill="#f6f4f0" fill-opacity="1"><g transform="translate(99.243943, 26.274979)"><g><path d="M 7.15625 -17.140625 C 8.707031 -17.140625 9.988281 -16.953125 11 -16.578125 C 12.007812 -16.203125 12.757812 -15.632812 13.25 -14.875 C 13.75 -14.113281 14 -13.15625 14 -12 C 14 -11.21875 13.847656 -10.535156 13.546875 -9.953125 C 13.253906 -9.367188 12.863281 -8.875 12.375 -8.46875 C 11.894531 -8.0625 11.375 -7.726562 10.8125 -7.46875 L 15.84375 0 L 11.8125 0 L 7.71875 -6.578125 L 5.796875 -6.578125 L 5.796875 0 L 2.15625 0 L 2.15625 -17.140625 Z M 6.890625 -14.15625 L 5.796875 -14.15625 L 5.796875 -9.53125 L 6.96875 -9.53125 C 8.164062 -9.53125 9.023438 -9.726562 9.546875 -10.125 C 10.066406 -10.53125 10.328125 -11.125 10.328125 -11.90625 C 10.328125 -12.71875 10.046875 -13.296875 9.484375 -13.640625 C 8.929688 -13.984375 8.066406 -14.15625 6.890625 -14.15625 Z M 6.890625 -14.15625 "/></g></g></g><g fill="#f6f4f0" fill-opacity="1"><g transform="translate(113.911636, 26.274979)"><g><path d="M 12.03125 0 L 2.15625 0 L 2.15625 -17.140625 L 12.03125 -17.140625 L 12.03125 -14.15625 L 5.796875 -14.15625 L 5.796875 -10.390625 L 11.59375 -10.390625 L 11.59375 -7.421875 L 5.796875 -7.421875 L 5.796875 -3 L 12.03125 -3 Z M 12.03125 0 "/></g></g></g></g></g><g transform="matrix(1, 0, 0, 1, 451, 1070)"><g clip-path="url(#211690d835)"><g fill="#f6f4f0" fill-opacity="1"><g transform="translate(0.824604, 27.082794)"><g><path d="M 17.703125 -8.59375 C 17.703125 -7.269531 17.535156 -6.066406 17.203125 -4.984375 C 16.878906 -3.898438 16.382812 -2.96875 15.71875 -2.1875 C 15.050781 -1.40625 14.207031 -0.804688 13.1875 -0.390625 C 12.164062 0.0234375 10.953125 0.234375 9.546875 0.234375 C 8.148438 0.234375 6.941406 0.0234375 5.921875 -0.390625 C 4.898438 -0.804688 4.050781 -1.40625 3.375 -2.1875 C 2.707031 -2.96875 2.207031 -3.898438 1.875 -4.984375 C 1.550781 -6.078125 1.390625 -7.285156 1.390625 -8.609375 C 1.390625 -10.390625 1.679688 -11.9375 2.265625 -13.25 C 2.847656 -14.5625 3.742188 -15.582031 4.953125 -16.3125 C 6.171875 -17.039062 7.710938 -17.40625 9.578125 -17.40625 C 11.429688 -17.40625 12.957031 -17.039062 14.15625 -16.3125 C 15.363281 -15.582031 16.253906 -14.554688 16.828125 -13.234375 C 17.410156 -11.921875 17.703125 -10.375 17.703125 -8.59375 Z M 5.203125 -8.59375 C 5.203125 -7.394531 5.351562 -6.363281 5.65625 -5.5 C 5.957031 -4.632812 6.425781 -3.96875 7.0625 -3.5 C 7.707031 -3.039062 8.535156 -2.8125 9.546875 -2.8125 C 10.578125 -2.8125 11.410156 -3.039062 12.046875 -3.5 C 12.691406 -3.96875 13.160156 -4.632812 13.453125 -5.5 C 13.753906 -6.363281 13.90625 -7.394531 13.90625 -8.59375 C 13.90625 -10.382812 13.566406 -11.796875 12.890625 -12.828125 C 12.222656 -13.859375 11.117188 -14.375 9.578125 -14.375 C 8.554688 -14.375 7.722656 -14.140625 7.078125 -13.671875 C 6.429688 -13.210938 5.957031 -12.550781 5.65625 -11.6875 C 5.351562 -10.820312 5.203125 -9.789062 5.203125 -8.59375 Z M 5.203125 -8.59375 "/></g></g></g><g fill="#f6f4f0" fill-opacity="1"><g transform="translate(18.750095, 27.082794)"><g><path d="M 16.109375 -17.140625 L 16.109375 -6.046875 C 16.109375 -4.867188 15.847656 -3.804688 15.328125 -2.859375 C 14.804688 -1.910156 14.019531 -1.15625 12.96875 -0.59375 C 11.914062 -0.0390625 10.59375 0.234375 9 0.234375 C 6.738281 0.234375 5.015625 -0.34375 3.828125 -1.5 C 2.640625 -2.65625 2.046875 -4.1875 2.046875 -6.09375 L 2.046875 -17.140625 L 5.65625 -17.140625 L 5.65625 -6.640625 C 5.65625 -5.234375 5.941406 -4.242188 6.515625 -3.671875 C 7.097656 -3.097656 7.957031 -2.8125 9.09375 -2.8125 C 9.894531 -2.8125 10.539062 -2.945312 11.03125 -3.21875 C 11.53125 -3.5 11.894531 -3.921875 12.125 -4.484375 C 12.363281 -5.054688 12.484375 -5.785156 12.484375 -6.671875 L 12.484375 -17.140625 Z M 16.109375 -17.140625 "/></g></g></g><g fill="#f6f4f0" fill-opacity="1"><g transform="translate(35.714654, 27.082794)"><g><path d="M 7.15625 -17.140625 C 8.707031 -17.140625 9.988281 -16.953125 11 -16.578125 C 12.007812 -16.203125 12.757812 -15.632812 13.25 -14.875 C 13.75 -14.113281 14 -13.15625 14 -12 C 14 -11.21875 13.847656 -10.535156 13.546875 -9.953125 C 13.253906 -9.367188 12.863281 -8.875 12.375 -8.46875 C 11.894531 -8.0625 11.375 -7.726562 10.8125 -7.46875 L 15.84375 0 L 11.8125 0 L 7.71875 -6.578125 L 5.796875 -6.578125 L 5.796875 0 L 2.15625 0 L 2.15625 -17.140625 Z M 6.890625 -14.15625 L 5.796875 -14.15625 L 5.796875 -9.53125 L 6.96875 -9.53125 C 8.164062 -9.53125 9.023438 -9.726562 9.546875 -10.125 C 10.066406 -10.53125 10.328125 -11.125 10.328125 -11.90625 C 10.328125 -12.71875 10.046875 -13.296875 9.484375 -13.640625 C 8.929688 -13.984375 8.066406 -14.15625 6.890625 -14.15625 Z M 6.890625 -14.15625 "/></g></g></g><g fill="#f6f4f0" fill-opacity="1"><g transform="translate(50.382347, 27.082794)"><g><path d="M 5.203125 -2.796875 L 5.375 -2.515625 C 5.238281 -1.953125 5.054688 -1.347656 4.828125 -0.703125 C 4.609375 -0.0546875 4.367188 0.585938 4.109375 1.234375 C 3.847656 1.890625 3.582031 2.507812 3.3125 3.09375 L 0.734375 3.09375 C 0.890625 2.457031 1.039062 1.789062 1.1875 1.09375 C 1.34375 0.40625 1.484375 -0.269531 1.609375 -0.9375 C 1.742188 -1.613281 1.847656 -2.234375 1.921875 -2.796875 Z M 5.203125 -2.796875 "/></g></g></g><g fill="#f6f4f0" fill-opacity="1"><g transform="translate(56.050078, 27.082794)"><g><path d="M 12.265625 -4.765625 C 12.265625 -3.742188 12.019531 -2.859375 11.53125 -2.109375 C 11.039062 -1.359375 10.320312 -0.78125 9.375 -0.375 C 8.4375 0.03125 7.296875 0.234375 5.953125 0.234375 C 5.359375 0.234375 4.773438 0.191406 4.203125 0.109375 C 3.640625 0.0351562 3.097656 -0.0703125 2.578125 -0.21875 C 2.066406 -0.375 1.578125 -0.566406 1.109375 -0.796875 L 1.109375 -4.171875 C 1.921875 -3.816406 2.765625 -3.492188 3.640625 -3.203125 C 4.515625 -2.910156 5.378906 -2.765625 6.234375 -2.765625 C 6.828125 -2.765625 7.304688 -2.84375 7.671875 -3 C 8.035156 -3.15625 8.296875 -3.367188 8.453125 -3.640625 C 8.617188 -3.921875 8.703125 -4.234375 8.703125 -4.578125 C 8.703125 -5.015625 8.554688 -5.382812 8.265625 -5.6875 C 7.984375 -5.988281 7.585938 -6.269531 7.078125 -6.53125 C 6.578125 -6.800781 6.007812 -7.085938 5.375 -7.390625 C 4.976562 -7.578125 4.546875 -7.804688 4.078125 -8.078125 C 3.609375 -8.347656 3.160156 -8.675781 2.734375 -9.0625 C 2.316406 -9.457031 1.972656 -9.929688 1.703125 -10.484375 C 1.429688 -11.046875 1.296875 -11.71875 1.296875 -12.5 C 1.296875 -13.53125 1.53125 -14.40625 2 -15.125 C 2.46875 -15.851562 3.140625 -16.410156 4.015625 -16.796875 C 4.890625 -17.179688 5.921875 -17.375 7.109375 -17.375 C 7.992188 -17.375 8.835938 -17.269531 9.640625 -17.0625 C 10.453125 -16.863281 11.300781 -16.566406 12.1875 -16.171875 L 11.015625 -13.34375 C 10.222656 -13.664062 9.515625 -13.914062 8.890625 -14.09375 C 8.265625 -14.269531 7.628906 -14.359375 6.984375 -14.359375 C 6.535156 -14.359375 6.148438 -14.285156 5.828125 -14.140625 C 5.503906 -13.992188 5.257812 -13.789062 5.09375 -13.53125 C 4.9375 -13.269531 4.859375 -12.96875 4.859375 -12.625 C 4.859375 -12.21875 4.972656 -11.875 5.203125 -11.59375 C 5.441406 -11.320312 5.800781 -11.054688 6.28125 -10.796875 C 6.769531 -10.535156 7.375 -10.234375 8.09375 -9.890625 C 8.96875 -9.472656 9.710938 -9.039062 10.328125 -8.59375 C 10.953125 -8.144531 11.429688 -7.617188 11.765625 -7.015625 C 12.097656 -6.410156 12.265625 -5.660156 12.265625 -4.765625 Z M 12.265625 -4.765625 "/></g></g></g><g fill="#f6f4f0" fill-opacity="1"><g transform="translate(68.092782, 27.082794)"><g/></g></g><g fill="#f6f4f0" fill-opacity="1"><g transform="translate(73.151141, 27.082794)"><g><path d="M 9.4375 -14.359375 C 8.738281 -14.359375 8.117188 -14.222656 7.578125 -13.953125 C 7.046875 -13.679688 6.597656 -13.289062 6.234375 -12.78125 C 5.878906 -12.28125 5.609375 -11.671875 5.421875 -10.953125 C 5.234375 -10.234375 5.140625 -9.421875 5.140625 -8.515625 C 5.140625 -7.304688 5.285156 -6.273438 5.578125 -5.421875 C 5.878906 -4.566406 6.347656 -3.914062 6.984375 -3.46875 C 7.617188 -3.019531 8.4375 -2.796875 9.4375 -2.796875 C 10.132812 -2.796875 10.832031 -2.875 11.53125 -3.03125 C 12.226562 -3.1875 12.988281 -3.40625 13.8125 -3.6875 L 13.8125 -0.640625 C 13.050781 -0.328125 12.300781 -0.101562 11.5625 0.03125 C 10.832031 0.164062 10.007812 0.234375 9.09375 0.234375 C 7.332031 0.234375 5.878906 -0.128906 4.734375 -0.859375 C 3.597656 -1.585938 2.753906 -2.609375 2.203125 -3.921875 C 1.660156 -5.242188 1.390625 -6.785156 1.390625 -8.546875 C 1.390625 -9.835938 1.566406 -11.019531 1.921875 -12.09375 C 2.273438 -13.175781 2.789062 -14.113281 3.46875 -14.90625 C 4.144531 -15.695312 4.984375 -16.304688 5.984375 -16.734375 C 6.984375 -17.160156 8.132812 -17.375 9.4375 -17.375 C 10.289062 -17.375 11.144531 -17.265625 12 -17.046875 C 12.851562 -16.835938 13.671875 -16.546875 14.453125 -16.171875 L 13.28125 -13.21875 C 12.632812 -13.519531 11.988281 -13.785156 11.34375 -14.015625 C 10.695312 -14.242188 10.0625 -14.359375 9.4375 -14.359375 Z M 9.4375 -14.359375 "/></g></g></g><g fill="#f6f4f0" fill-opacity="1"><g transform="translate(87.268055, 27.082794)"><g><path d="M 17.703125 -8.59375 C 17.703125 -7.269531 17.535156 -6.066406 17.203125 -4.984375 C 16.878906 -3.898438 16.382812 -2.96875 15.71875 -2.1875 C 15.050781 -1.40625 14.207031 -0.804688 13.1875 -0.390625 C 12.164062 0.0234375 10.953125 0.234375 9.546875 0.234375 C 8.148438 0.234375 6.941406 0.0234375 5.921875 -0.390625 C 4.898438 -0.804688 4.050781 -1.40625 3.375 -2.1875 C 2.707031 -2.96875 2.207031 -3.898438 1.875 -4.984375 C 1.550781 -6.078125 1.390625 -7.285156 1.390625 -8.609375 C 1.390625 -10.390625 1.679688 -11.9375 2.265625 -13.25 C 2.847656 -14.5625 3.742188 -15.582031 4.953125 -16.3125 C 6.171875 -17.039062 7.710938 -17.40625 9.578125 -17.40625 C 11.429688 -17.40625 12.957031 -17.039062 14.15625 -16.3125 C 15.363281 -15.582031 16.253906 -14.554688 16.828125 -13.234375 C 17.410156 -11.921875 17.703125 -10.375 17.703125 -8.59375 Z M 5.203125 -8.59375 C 5.203125 -7.394531 5.351562 -6.363281 5.65625 -5.5 C 5.957031 -4.632812 6.425781 -3.96875 7.0625 -3.5 C 7.707031 -3.039062 8.535156 -2.8125 9.546875 -2.8125 C 10.578125 -2.8125 11.410156 -3.039062 12.046875 -3.5 C 12.691406 -3.96875 13.160156 -4.632812 13.453125 -5.5 C 13.753906 -6.363281 13.90625 -7.394531 13.90625 -8.59375 C 13.90625 -10.382812 13.566406 -11.796875 12.890625 -12.828125 C 12.222656 -13.859375 11.117188 -14.375 9.578125 -14.375 C 8.554688 -14.375 7.722656 -14.140625 7.078125 -13.671875 C 6.429688 -13.210938 5.957031 -12.550781 5.65625 -11.6875 C 5.351562 -10.820312 5.203125 -9.789062 5.203125 -8.59375 Z M 5.203125 -8.59375 "/></g></g></g><g fill="#f6f4f0" fill-opacity="1"><g transform="translate(105.193546, 27.082794)"><g><path d="M 17.359375 0 L 12.734375 0 L 5.28125 -12.96875 L 5.1875 -12.96875 C 5.21875 -12.425781 5.242188 -11.878906 5.265625 -11.328125 C 5.285156 -10.785156 5.304688 -10.242188 5.328125 -9.703125 C 5.359375 -9.160156 5.382812 -8.613281 5.40625 -8.0625 L 5.40625 0 L 2.15625 0 L 2.15625 -17.140625 L 6.734375 -17.140625 L 14.1875 -4.296875 L 14.265625 -4.296875 C 14.242188 -4.828125 14.222656 -5.351562 14.203125 -5.875 C 14.179688 -6.40625 14.160156 -6.929688 14.140625 -7.453125 C 14.117188 -7.972656 14.101562 -8.5 14.09375 -9.03125 L 14.09375 -17.140625 L 17.359375 -17.140625 Z M 17.359375 0 "/></g></g></g><g fill="#f6f4f0" fill-opacity="1"><g transform="translate(123.529192, 27.082794)"><g><path d="M 8.765625 0 L 5.140625 0 L 5.140625 -14.109375 L 0.484375 -14.109375 L 0.484375 -17.140625 L 13.421875 -17.140625 L 13.421875 -14.109375 L 8.765625 -14.109375 Z M 8.765625 0 "/></g></g></g><g fill="#f6f4f0" fill-opacity="1"><g transform="translate(136.251581, 27.082794)"><g><path d="M 12.03125 0 L 2.15625 0 L 2.15625 -17.140625 L 12.03125 -17.140625 L 12.03125 -14.15625 L 5.796875 -14.15625 L 5.796875 -10.390625 L 11.59375 -10.390625 L 11.59375 -7.421875 L 5.796875 -7.421875 L 5.796875 -3 L 12.03125 -3 Z M 12.03125 0 "/></g></g></g><g fill="#f6f4f0" fill-opacity="1"><g transform="translate(148.51694, 27.082794)"><g><path d="M 17.359375 0 L 12.734375 0 L 5.28125 -12.96875 L 5.1875 -12.96875 C 5.21875 -12.425781 5.242188 -11.878906 5.265625 -11.328125 C 5.285156 -10.785156 5.304688 -10.242188 5.328125 -9.703125 C 5.359375 -9.160156 5.382812 -8.613281 5.40625 -8.0625 L 5.40625 0 L 2.15625 0 L 2.15625 -17.140625 L 6.734375 -17.140625 L 14.1875 -4.296875 L 14.265625 -4.296875 C 14.242188 -4.828125 14.222656 -5.351562 14.203125 -5.875 C 14.179688 -6.40625 14.160156 -6.929688 14.140625 -7.453125 C 14.117188 -7.972656 14.101562 -8.5 14.09375 -9.03125 L 14.09375 -17.140625 L 17.359375 -17.140625 Z M 17.359375 0 "/></g></g></g><g fill="#f6f4f0" fill-opacity="1"><g transform="translate(166.852586, 27.082794)"><g><path d="M 8.765625 0 L 5.140625 0 L 5.140625 -14.109375 L 0.484375 -14.109375 L 0.484375 -17.140625 L 13.421875 -17.140625 L 13.421875 -14.109375 L 8.765625 -14.109375 Z M 8.765625 0 "/></g></g></g></g></g><g transform="matrix(1, 0, 0, 1, 844, 1070)"><g clip-path="url(#d6256a68f8)"><g fill="#f6f4f0" fill-opacity="1"><g transform="translate(0.156015, 27.082794)"><g><path d="M 7.625 -17.140625 C 9.84375 -17.140625 11.457031 -16.660156 12.46875 -15.703125 C 13.488281 -14.753906 14 -13.453125 14 -11.796875 C 14 -11.046875 13.882812 -10.328125 13.65625 -9.640625 C 13.425781 -8.953125 13.054688 -8.34375 12.546875 -7.8125 C 12.035156 -7.28125 11.351562 -6.859375 10.5 -6.546875 C 9.644531 -6.242188 8.59375 -6.09375 7.34375 -6.09375 L 5.796875 -6.09375 L 5.796875 0 L 2.15625 0 L 2.15625 -17.140625 Z M 7.4375 -14.15625 L 5.796875 -14.15625 L 5.796875 -9.078125 L 6.984375 -9.078125 C 7.660156 -9.078125 8.25 -9.164062 8.75 -9.34375 C 9.25 -9.519531 9.632812 -9.800781 9.90625 -10.1875 C 10.1875 -10.570312 10.328125 -11.0625 10.328125 -11.65625 C 10.328125 -12.5 10.09375 -13.125 9.625 -13.53125 C 9.15625 -13.945312 8.425781 -14.15625 7.4375 -14.15625 Z M 7.4375 -14.15625 "/></g></g></g><g fill="#f6f4f0" fill-opacity="1"><g transform="translate(14.050274, 27.082794)"><g><path d="M 12.640625 0 L 11.40625 -4.078125 L 5.15625 -4.078125 L 3.921875 0 L 0 0 L 6.046875 -17.203125 L 10.484375 -17.203125 L 16.5625 0 Z M 10.53125 -7.125 L 9.296875 -11.109375 C 9.210938 -11.378906 9.109375 -11.722656 8.984375 -12.140625 C 8.859375 -12.554688 8.726562 -12.976562 8.59375 -13.40625 C 8.46875 -13.84375 8.363281 -14.222656 8.28125 -14.546875 C 8.207031 -14.222656 8.101562 -13.820312 7.96875 -13.34375 C 7.832031 -12.875 7.703125 -12.425781 7.578125 -12 C 7.453125 -11.582031 7.359375 -11.285156 7.296875 -11.109375 L 6.078125 -7.125 Z M 10.53125 -7.125 "/></g></g></g><g fill="#f6f4f0" fill-opacity="1"><g transform="translate(29.432808, 27.082794)"><g><path d="M 2.15625 0 L 2.15625 -17.140625 L 5.796875 -17.140625 L 5.796875 0 Z M 2.15625 0 "/></g></g></g><g fill="#f6f4f0" fill-opacity="1"><g transform="translate(36.202096, 27.082794)"><g><path d="M 17.359375 0 L 12.734375 0 L 5.28125 -12.96875 L 5.1875 -12.96875 C 5.21875 -12.425781 5.242188 -11.878906 5.265625 -11.328125 C 5.285156 -10.785156 5.304688 -10.242188 5.328125 -9.703125 C 5.359375 -9.160156 5.382812 -8.613281 5.40625 -8.0625 L 5.40625 0 L 2.15625 0 L 2.15625 -17.140625 L 6.734375 -17.140625 L 14.1875 -4.296875 L 14.265625 -4.296875 C 14.242188 -4.828125 14.222656 -5.351562 14.203125 -5.875 C 14.179688 -6.40625 14.160156 -6.929688 14.140625 -7.453125 C 14.117188 -7.972656 14.101562 -8.5 14.09375 -9.03125 L 14.09375 -17.140625 L 17.359375 -17.140625 Z M 17.359375 0 "/></g></g></g><g fill="#f6f4f0" fill-opacity="1"><g transform="translate(54.537742, 27.082794)"><g><path d="M 8.765625 0 L 5.140625 0 L 5.140625 -14.109375 L 0.484375 -14.109375 L 0.484375 -17.140625 L 13.421875 -17.140625 L 13.421875 -14.109375 L 8.765625 -14.109375 Z M 8.765625 0 "/></g></g></g><g fill="#f6f4f0" fill-opacity="1"><g transform="translate(67.260131, 27.082794)"><g><path d="M 2.15625 0 L 2.15625 -17.140625 L 5.796875 -17.140625 L 5.796875 0 Z M 2.15625 0 "/></g></g></g><g fill="#f6f4f0" fill-opacity="1"><g transform="translate(74.02942, 27.082794)"><g><path d="M 17.359375 0 L 12.734375 0 L 5.28125 -12.96875 L 5.1875 -12.96875 C 5.21875 -12.425781 5.242188 -11.878906 5.265625 -11.328125 C 5.285156 -10.785156 5.304688 -10.242188 5.328125 -9.703125 C 5.359375 -9.160156 5.382812 -8.613281 5.40625 -8.0625 L 5.40625 0 L 2.15625 0 L 2.15625 -17.140625 L 6.734375 -17.140625 L 14.1875 -4.296875 L 14.265625 -4.296875 C 14.242188 -4.828125 14.222656 -5.351562 14.203125 -5.875 C 14.179688 -6.40625 14.160156 -6.929688 14.140625 -7.453125 C 14.117188 -7.972656 14.101562 -8.5 14.09375 -9.03125 L 14.09375 -17.140625 L 17.359375 -17.140625 Z M 17.359375 0 "/></g></g></g><g fill="#f6f4f0" fill-opacity="1"><g transform="translate(92.365066, 27.082794)"><g><path d="M 8.65625 -9.625 L 15.453125 -9.625 L 15.453125 -0.734375 C 14.554688 -0.441406 13.625 -0.207031 12.65625 -0.03125 C 11.6875 0.144531 10.585938 0.234375 9.359375 0.234375 C 7.660156 0.234375 6.21875 -0.0976562 5.03125 -0.765625 C 3.84375 -1.441406 2.9375 -2.4375 2.3125 -3.75 C 1.695312 -5.0625 1.390625 -6.675781 1.390625 -8.59375 C 1.390625 -10.382812 1.734375 -11.9375 2.421875 -13.25 C 3.117188 -14.5625 4.132812 -15.578125 5.46875 -16.296875 C 6.800781 -17.015625 8.425781 -17.375 10.34375 -17.375 C 11.25 -17.375 12.144531 -17.273438 13.03125 -17.078125 C 13.914062 -16.890625 14.71875 -16.640625 15.4375 -16.328125 L 14.234375 -13.421875 C 13.703125 -13.679688 13.097656 -13.898438 12.421875 -14.078125 C 11.753906 -14.265625 11.054688 -14.359375 10.328125 -14.359375 C 9.273438 -14.359375 8.359375 -14.113281 7.578125 -13.625 C 6.796875 -13.144531 6.191406 -12.46875 5.765625 -11.59375 C 5.347656 -10.726562 5.140625 -9.703125 5.140625 -8.515625 C 5.140625 -7.398438 5.289062 -6.410156 5.59375 -5.546875 C 5.894531 -4.679688 6.375 -4.003906 7.03125 -3.515625 C 7.6875 -3.035156 8.539062 -2.796875 9.59375 -2.796875 C 10.113281 -2.796875 10.550781 -2.816406 10.90625 -2.859375 C 11.257812 -2.910156 11.59375 -2.96875 11.90625 -3.03125 L 11.90625 -6.59375 L 8.65625 -6.59375 Z M 8.65625 -9.625 "/></g></g></g></g></g><g transform="matrix(1, 0, 0, 1, 451, 1125)"><g clip-path="url(#b27c1a1a92)"><g fill="#f6f4f0" fill-opacity="1"><g transform="translate(0.824604, 26.467102)"><g><path d="M 12.03125 0 L 2.15625 0 L 2.15625 -17.140625 L 12.03125 -17.140625 L 12.03125 -14.15625 L 5.796875 -14.15625 L 5.796875 -10.390625 L 11.59375 -10.390625 L 11.59375 -7.421875 L 5.796875 -7.421875 L 5.796875 -3 L 12.03125 -3 Z M 12.03125 0 "/></g></g></g><g fill="#f6f4f0" fill-opacity="1"><g transform="translate(13.089991, 26.467102)"><g><path d="M 12.265625 -4.765625 C 12.265625 -3.742188 12.019531 -2.859375 11.53125 -2.109375 C 11.039062 -1.359375 10.320312 -0.78125 9.375 -0.375 C 8.4375 0.03125 7.296875 0.234375 5.953125 0.234375 C 5.359375 0.234375 4.773438 0.191406 4.203125 0.109375 C 3.640625 0.0351562 3.097656 -0.0703125 2.578125 -0.21875 C 2.066406 -0.375 1.578125 -0.566406 1.109375 -0.796875 L 1.109375 -4.171875 C 1.921875 -3.816406 2.765625 -3.492188 3.640625 -3.203125 C 4.515625 -2.910156 5.378906 -2.765625 6.234375 -2.765625 C 6.828125 -2.765625 7.304688 -2.84375 7.671875 -3 C 8.035156 -3.15625 8.296875 -3.367188 8.453125 -3.640625 C 8.617188 -3.921875 8.703125 -4.234375 8.703125 -4.578125 C 8.703125 -5.015625 8.554688 -5.382812 8.265625 -5.6875 C 7.984375 -5.988281 7.585938 -6.269531 7.078125 -6.53125 C 6.578125 -6.800781 6.007812 -7.085938 5.375 -7.390625 C 4.976562 -7.578125 4.546875 -7.804688 4.078125 -8.078125 C 3.609375 -8.347656 3.160156 -8.675781 2.734375 -9.0625 C 2.316406 -9.457031 1.972656 -9.929688 1.703125 -10.484375 C 1.429688 -11.046875 1.296875 -11.71875 1.296875 -12.5 C 1.296875 -13.53125 1.53125 -14.40625 2 -15.125 C 2.46875 -15.851562 3.140625 -16.410156 4.015625 -16.796875 C 4.890625 -17.179688 5.921875 -17.375 7.109375 -17.375 C 7.992188 -17.375 8.835938 -17.269531 9.640625 -17.0625 C 10.453125 -16.863281 11.300781 -16.566406 12.1875 -16.171875 L 11.015625 -13.34375 C 10.222656 -13.664062 9.515625 -13.914062 8.890625 -14.09375 C 8.265625 -14.269531 7.628906 -14.359375 6.984375 -14.359375 C 6.535156 -14.359375 6.148438 -14.285156 5.828125 -14.140625 C 5.503906 -13.992188 5.257812 -13.789062 5.09375 -13.53125 C 4.9375 -13.269531 4.859375 -12.96875 4.859375 -12.625 C 4.859375 -12.21875 4.972656 -11.875 5.203125 -11.59375 C 5.441406 -11.320312 5.800781 -11.054688 6.28125 -10.796875 C 6.769531 -10.535156 7.375 -10.234375 8.09375 -9.890625 C 8.96875 -9.472656 9.710938 -9.039062 10.328125 -8.59375 C 10.953125 -8.144531 11.429688 -7.617188 11.765625 -7.015625 C 12.097656 -6.410156 12.265625 -5.660156 12.265625 -4.765625 Z M 12.265625 -4.765625 "/></g></g></g><g fill="#f6f4f0" fill-opacity="1"><g transform="translate(25.132723, 26.467102)"><g><path d="M 8.765625 0 L 5.140625 0 L 5.140625 -14.109375 L 0.484375 -14.109375 L 0.484375 -17.140625 L 13.421875 -17.140625 L 13.421875 -14.109375 L 8.765625 -14.109375 Z M 8.765625 0 "/></g></g></g><g fill="#f6f4f0" fill-opacity="1"><g transform="translate(37.855141, 26.467102)"><g><path d="M 16.375 -8.734375 C 16.375 -6.804688 16.003906 -5.191406 15.265625 -3.890625 C 14.523438 -2.597656 13.457031 -1.625 12.0625 -0.96875 C 10.664062 -0.320312 8.984375 0 7.015625 0 L 2.15625 0 L 2.15625 -17.140625 L 7.53125 -17.140625 C 9.332031 -17.140625 10.890625 -16.816406 12.203125 -16.171875 C 13.523438 -15.535156 14.550781 -14.59375 15.28125 -13.34375 C 16.007812 -12.101562 16.375 -10.566406 16.375 -8.734375 Z M 12.59375 -8.640625 C 12.59375 -9.898438 12.40625 -10.9375 12.03125 -11.75 C 11.664062 -12.570312 11.117188 -13.175781 10.390625 -13.5625 C 9.671875 -13.957031 8.78125 -14.15625 7.71875 -14.15625 L 5.796875 -14.15625 L 5.796875 -3 L 7.34375 -3 C 9.125 -3 10.441406 -3.472656 11.296875 -4.421875 C 12.160156 -5.367188 12.59375 -6.773438 12.59375 -8.640625 Z M 12.59375 -8.640625 "/></g></g></g><g fill="#f6f4f0" fill-opacity="1"><g transform="translate(54.444739, 26.467102)"><g/></g></g><g fill="#f6f4f0" fill-opacity="1"><g transform="translate(59.503109, 26.467102)"><g><path d="M 12.9375 0 L 0.96875 0 L 0.96875 -2.515625 L 5.265625 -6.875 C 6.128906 -7.757812 6.820312 -8.5 7.34375 -9.09375 C 7.875 -9.695312 8.257812 -10.242188 8.5 -10.734375 C 8.738281 -11.222656 8.859375 -11.75 8.859375 -12.3125 C 8.859375 -13 8.664062 -13.507812 8.28125 -13.84375 C 7.90625 -14.1875 7.40625 -14.359375 6.78125 -14.359375 C 6.113281 -14.359375 5.46875 -14.203125 4.84375 -13.890625 C 4.21875 -13.585938 3.566406 -13.15625 2.890625 -12.59375 L 0.921875 -14.9375 C 1.410156 -15.351562 1.929688 -15.75 2.484375 -16.125 C 3.035156 -16.5 3.675781 -16.800781 4.40625 -17.03125 C 5.132812 -17.257812 6.007812 -17.375 7.03125 -17.375 C 8.15625 -17.375 9.117188 -17.171875 9.921875 -16.765625 C 10.734375 -16.359375 11.359375 -15.804688 11.796875 -15.109375 C 12.234375 -14.410156 12.453125 -13.617188 12.453125 -12.734375 C 12.453125 -11.796875 12.265625 -10.9375 11.890625 -10.15625 C 11.515625 -9.375 10.96875 -8.597656 10.25 -7.828125 C 9.539062 -7.066406 8.679688 -6.21875 7.671875 -5.28125 L 5.46875 -3.21875 L 5.46875 -3.046875 L 12.9375 -3.046875 Z M 12.9375 0 "/></g></g></g><g fill="#f6f4f0" fill-opacity="1"><g transform="translate(72.049746, 26.467102)"><g><path d="M 12.84375 -8.5625 C 12.84375 -7.1875 12.734375 -5.953125 12.515625 -4.859375 C 12.304688 -3.773438 11.960938 -2.851562 11.484375 -2.09375 C 11.015625 -1.34375 10.394531 -0.765625 9.625 -0.359375 C 8.863281 0.0351562 7.9375 0.234375 6.84375 0.234375 C 5.46875 0.234375 4.335938 -0.113281 3.453125 -0.8125 C 2.578125 -1.507812 1.925781 -2.515625 1.5 -3.828125 C 1.082031 -5.148438 0.875 -6.726562 0.875 -8.5625 C 0.875 -10.414062 1.066406 -12 1.453125 -13.3125 C 1.835938 -14.632812 2.46875 -15.644531 3.34375 -16.34375 C 4.21875 -17.050781 5.382812 -17.40625 6.84375 -17.40625 C 8.207031 -17.40625 9.332031 -17.054688 10.21875 -16.359375 C 11.113281 -15.660156 11.773438 -14.648438 12.203125 -13.328125 C 12.628906 -12.015625 12.84375 -10.425781 12.84375 -8.5625 Z M 4.46875 -8.5625 C 4.46875 -7.257812 4.539062 -6.171875 4.6875 -5.296875 C 4.832031 -4.429688 5.078125 -3.78125 5.421875 -3.34375 C 5.765625 -2.90625 6.238281 -2.6875 6.84375 -2.6875 C 7.445312 -2.6875 7.921875 -2.898438 8.265625 -3.328125 C 8.617188 -3.765625 8.867188 -4.414062 9.015625 -5.28125 C 9.160156 -6.15625 9.234375 -7.25 9.234375 -8.5625 C 9.234375 -9.875 9.160156 -10.96875 9.015625 -11.84375 C 8.867188 -12.71875 8.617188 -13.375 8.265625 -13.8125 C 7.921875 -14.25 7.445312 -14.46875 6.84375 -14.46875 C 6.238281 -14.46875 5.765625 -14.25 5.421875 -13.8125 C 5.078125 -13.375 4.832031 -12.71875 4.6875 -11.84375 C 4.539062 -10.96875 4.46875 -9.875 4.46875 -8.5625 Z M 4.46875 -8.5625 "/></g></g></g><g fill="#f6f4f0" fill-opacity="1"><g transform="translate(84.596383, 26.467102)"><g><path d="M 12.9375 0 L 0.96875 0 L 0.96875 -2.515625 L 5.265625 -6.875 C 6.128906 -7.757812 6.820312 -8.5 7.34375 -9.09375 C 7.875 -9.695312 8.257812 -10.242188 8.5 -10.734375 C 8.738281 -11.222656 8.859375 -11.75 8.859375 -12.3125 C 8.859375 -13 8.664062 -13.507812 8.28125 -13.84375 C 7.90625 -14.1875 7.40625 -14.359375 6.78125 -14.359375 C 6.113281 -14.359375 5.46875 -14.203125 4.84375 -13.890625 C 4.21875 -13.585938 3.566406 -13.15625 2.890625 -12.59375 L 0.921875 -14.9375 C 1.410156 -15.351562 1.929688 -15.75 2.484375 -16.125 C 3.035156 -16.5 3.675781 -16.800781 4.40625 -17.03125 C 5.132812 -17.257812 6.007812 -17.375 7.03125 -17.375 C 8.15625 -17.375 9.117188 -17.171875 9.921875 -16.765625 C 10.734375 -16.359375 11.359375 -15.804688 11.796875 -15.109375 C 12.234375 -14.410156 12.453125 -13.617188 12.453125 -12.734375 C 12.453125 -11.796875 12.265625 -10.9375 11.890625 -10.15625 C 11.515625 -9.375 10.96875 -8.597656 10.25 -7.828125 C 9.539062 -7.066406 8.679688 -6.21875 7.671875 -5.28125 L 5.46875 -3.21875 L 5.46875 -3.046875 L 12.9375 -3.046875 Z M 12.9375 0 "/></g></g></g><g fill="#f6f4f0" fill-opacity="1"><g transform="translate(97.14302, 26.467102)"><g><path d="M 0.84375 -7.28125 C 0.84375 -8.257812 0.914062 -9.234375 1.0625 -10.203125 C 1.207031 -11.171875 1.457031 -12.082031 1.8125 -12.9375 C 2.175781 -13.789062 2.679688 -14.546875 3.328125 -15.203125 C 3.972656 -15.867188 4.796875 -16.390625 5.796875 -16.765625 C 6.796875 -17.140625 8.007812 -17.328125 9.4375 -17.328125 C 9.769531 -17.328125 10.160156 -17.3125 10.609375 -17.28125 C 11.054688 -17.257812 11.429688 -17.21875 11.734375 -17.15625 L 11.734375 -14.265625 C 11.421875 -14.335938 11.085938 -14.394531 10.734375 -14.4375 C 10.378906 -14.476562 10.023438 -14.5 9.671875 -14.5 C 8.242188 -14.5 7.140625 -14.269531 6.359375 -13.8125 C 5.585938 -13.363281 5.039062 -12.738281 4.71875 -11.9375 C 4.40625 -11.132812 4.222656 -10.203125 4.171875 -9.140625 L 4.328125 -9.140625 C 4.546875 -9.523438 4.820312 -9.863281 5.15625 -10.15625 C 5.488281 -10.457031 5.890625 -10.695312 6.359375 -10.875 C 6.835938 -11.050781 7.398438 -11.140625 8.046875 -11.140625 C 9.046875 -11.140625 9.910156 -10.925781 10.640625 -10.5 C 11.378906 -10.070312 11.945312 -9.453125 12.34375 -8.640625 C 12.738281 -7.835938 12.9375 -6.859375 12.9375 -5.703125 C 12.9375 -4.472656 12.695312 -3.410156 12.21875 -2.515625 C 11.75 -1.628906 11.078125 -0.945312 10.203125 -0.46875 C 9.328125 0 8.296875 0.234375 7.109375 0.234375 C 6.234375 0.234375 5.414062 0.0820312 4.65625 -0.21875 C 3.894531 -0.519531 3.226562 -0.976562 2.65625 -1.59375 C 2.09375 -2.207031 1.648438 -2.984375 1.328125 -3.921875 C 1.003906 -4.867188 0.84375 -5.988281 0.84375 -7.28125 Z M 7.03125 -2.65625 C 7.738281 -2.65625 8.316406 -2.894531 8.765625 -3.375 C 9.210938 -3.863281 9.4375 -4.625 9.4375 -5.65625 C 9.4375 -6.5 9.242188 -7.160156 8.859375 -7.640625 C 8.472656 -8.117188 7.890625 -8.359375 7.109375 -8.359375 C 6.578125 -8.359375 6.109375 -8.238281 5.703125 -8 C 5.296875 -7.757812 4.984375 -7.457031 4.765625 -7.09375 C 4.546875 -6.726562 4.4375 -6.359375 4.4375 -5.984375 C 4.4375 -5.578125 4.488281 -5.175781 4.59375 -4.78125 C 4.707031 -4.394531 4.875 -4.039062 5.09375 -3.71875 C 5.3125 -3.40625 5.582031 -3.148438 5.90625 -2.953125 C 6.238281 -2.753906 6.613281 -2.65625 7.03125 -2.65625 Z M 7.03125 -2.65625 "/></g></g></g></g></g><g transform="matrix(1, 0, 0, 1, 844, 1125)"><g clip-path="url(#511ff9f805)"><g fill="#f6f4f0" fill-opacity="1"><g transform="translate(0.156015, 26.467102)"><g><path d="M 7.625 -17.140625 C 9.84375 -17.140625 11.457031 -16.660156 12.46875 -15.703125 C 13.488281 -14.753906 14 -13.453125 14 -11.796875 C 14 -11.046875 13.882812 -10.328125 13.65625 -9.640625 C 13.425781 -8.953125 13.054688 -8.34375 12.546875 -7.8125 C 12.035156 -7.28125 11.351562 -6.859375 10.5 -6.546875 C 9.644531 -6.242188 8.59375 -6.09375 7.34375 -6.09375 L 5.796875 -6.09375 L 5.796875 0 L 2.15625 0 L 2.15625 -17.140625 Z M 7.4375 -14.15625 L 5.796875 -14.15625 L 5.796875 -9.078125 L 6.984375 -9.078125 C 7.660156 -9.078125 8.25 -9.164062 8.75 -9.34375 C 9.25 -9.519531 9.632812 -9.800781 9.90625 -10.1875 C 10.1875 -10.570312 10.328125 -11.0625 10.328125 -11.65625 C 10.328125 -12.5 10.09375 -13.125 9.625 -13.53125 C 9.15625 -13.945312 8.425781 -14.15625 7.4375 -14.15625 Z M 7.4375 -14.15625 "/></g></g></g><g fill="#f6f4f0" fill-opacity="1"><g transform="translate(14.050306, 26.467102)"><g><path d="M 16.203125 0 L 12.578125 0 L 12.578125 -7.390625 L 5.796875 -7.390625 L 5.796875 0 L 2.15625 0 L 2.15625 -17.140625 L 5.796875 -17.140625 L 5.796875 -10.421875 L 12.578125 -10.421875 L 12.578125 -17.140625 L 16.203125 -17.140625 Z M 16.203125 0 "/></g></g></g><g fill="#f6f4f0" fill-opacity="1"><g transform="translate(31.237559, 26.467102)"><g><path d="M 17.703125 -8.59375 C 17.703125 -7.269531 17.535156 -6.066406 17.203125 -4.984375 C 16.878906 -3.898438 16.382812 -2.96875 15.71875 -2.1875 C 15.050781 -1.40625 14.207031 -0.804688 13.1875 -0.390625 C 12.164062 0.0234375 10.953125 0.234375 9.546875 0.234375 C 8.148438 0.234375 6.941406 0.0234375 5.921875 -0.390625 C 4.898438 -0.804688 4.050781 -1.40625 3.375 -2.1875 C 2.707031 -2.96875 2.207031 -3.898438 1.875 -4.984375 C 1.550781 -6.078125 1.390625 -7.285156 1.390625 -8.609375 C 1.390625 -10.390625 1.679688 -11.9375 2.265625 -13.25 C 2.847656 -14.5625 3.742188 -15.582031 4.953125 -16.3125 C 6.171875 -17.039062 7.710938 -17.40625 9.578125 -17.40625 C 11.429688 -17.40625 12.957031 -17.039062 14.15625 -16.3125 C 15.363281 -15.582031 16.253906 -14.554688 16.828125 -13.234375 C 17.410156 -11.921875 17.703125 -10.375 17.703125 -8.59375 Z M 5.203125 -8.59375 C 5.203125 -7.394531 5.351562 -6.363281 5.65625 -5.5 C 5.957031 -4.632812 6.425781 -3.96875 7.0625 -3.5 C 7.707031 -3.039062 8.535156 -2.8125 9.546875 -2.8125 C 10.578125 -2.8125 11.410156 -3.039062 12.046875 -3.5 C 12.691406 -3.96875 13.160156 -4.632812 13.453125 -5.5 C 13.753906 -6.363281 13.90625 -7.394531 13.90625 -8.59375 C 13.90625 -10.382812 13.566406 -11.796875 12.890625 -12.828125 C 12.222656 -13.859375 11.117188 -14.375 9.578125 -14.375 C 8.554688 -14.375 7.722656 -14.140625 7.078125 -13.671875 C 6.429688 -13.210938 5.957031 -12.550781 5.65625 -11.6875 C 5.351562 -10.820312 5.203125 -9.789062 5.203125 -8.59375 Z M 5.203125 -8.59375 "/></g></g></g><g fill="#f6f4f0" fill-opacity="1"><g transform="translate(49.163091, 26.467102)"><g><path d="M 8.765625 0 L 5.140625 0 L 5.140625 -14.109375 L 0.484375 -14.109375 L 0.484375 -17.140625 L 13.421875 -17.140625 L 13.421875 -14.109375 L 8.765625 -14.109375 Z M 8.765625 0 "/></g></g></g><g fill="#f6f4f0" fill-opacity="1"><g transform="translate(61.885509, 26.467102)"><g><path d="M 17.703125 -8.59375 C 17.703125 -7.269531 17.535156 -6.066406 17.203125 -4.984375 C 16.878906 -3.898438 16.382812 -2.96875 15.71875 -2.1875 C 15.050781 -1.40625 14.207031 -0.804688 13.1875 -0.390625 C 12.164062 0.0234375 10.953125 0.234375 9.546875 0.234375 C 8.148438 0.234375 6.941406 0.0234375 5.921875 -0.390625 C 4.898438 -0.804688 4.050781 -1.40625 3.375 -2.1875 C 2.707031 -2.96875 2.207031 -3.898438 1.875 -4.984375 C 1.550781 -6.078125 1.390625 -7.285156 1.390625 -8.609375 C 1.390625 -10.390625 1.679688 -11.9375 2.265625 -13.25 C 2.847656 -14.5625 3.742188 -15.582031 4.953125 -16.3125 C 6.171875 -17.039062 7.710938 -17.40625 9.578125 -17.40625 C 11.429688 -17.40625 12.957031 -17.039062 14.15625 -16.3125 C 15.363281 -15.582031 16.253906 -14.554688 16.828125 -13.234375 C 17.410156 -11.921875 17.703125 -10.375 17.703125 -8.59375 Z M 5.203125 -8.59375 C 5.203125 -7.394531 5.351562 -6.363281 5.65625 -5.5 C 5.957031 -4.632812 6.425781 -3.96875 7.0625 -3.5 C 7.707031 -3.039062 8.535156 -2.8125 9.546875 -2.8125 C 10.578125 -2.8125 11.410156 -3.039062 12.046875 -3.5 C 12.691406 -3.96875 13.160156 -4.632812 13.453125 -5.5 C 13.753906 -6.363281 13.90625 -7.394531 13.90625 -8.59375 C 13.90625 -10.382812 13.566406 -11.796875 12.890625 -12.828125 C 12.222656 -13.859375 11.117188 -14.375 9.578125 -14.375 C 8.554688 -14.375 7.722656 -14.140625 7.078125 -13.671875 C 6.429688 -13.210938 5.957031 -12.550781 5.65625 -11.6875 C 5.351562 -10.820312 5.203125 -9.789062 5.203125 -8.59375 Z M 5.203125 -8.59375 "/></g></g></g><g fill="#f6f4f0" fill-opacity="1"><g transform="translate(79.811042, 26.467102)"><g><path d="M 8.65625 -9.625 L 15.453125 -9.625 L 15.453125 -0.734375 C 14.554688 -0.441406 13.625 -0.207031 12.65625 -0.03125 C 11.6875 0.144531 10.585938 0.234375 9.359375 0.234375 C 7.660156 0.234375 6.21875 -0.0976562 5.03125 -0.765625 C 3.84375 -1.441406 2.9375 -2.4375 2.3125 -3.75 C 1.695312 -5.0625 1.390625 -6.675781 1.390625 -8.59375 C 1.390625 -10.382812 1.734375 -11.9375 2.421875 -13.25 C 3.117188 -14.5625 4.132812 -15.578125 5.46875 -16.296875 C 6.800781 -17.015625 8.425781 -17.375 10.34375 -17.375 C 11.25 -17.375 12.144531 -17.273438 13.03125 -17.078125 C 13.914062 -16.890625 14.71875 -16.640625 15.4375 -16.328125 L 14.234375 -13.421875 C 13.703125 -13.679688 13.097656 -13.898438 12.421875 -14.078125 C 11.753906 -14.265625 11.054688 -14.359375 10.328125 -14.359375 C 9.273438 -14.359375 8.359375 -14.113281 7.578125 -13.625 C 6.796875 -13.144531 6.191406 -12.46875 5.765625 -11.59375 C 5.347656 -10.726562 5.140625 -9.703125 5.140625 -8.515625 C 5.140625 -7.398438 5.289062 -6.410156 5.59375 -5.546875 C 5.894531 -4.679688 6.375 -4.003906 7.03125 -3.515625 C 7.6875 -3.035156 8.539062 -2.796875 9.59375 -2.796875 C 10.113281 -2.796875 10.550781 -2.816406 10.90625 -2.859375 C 11.257812 -2.910156 11.59375 -2.96875 11.90625 -3.03125 L 11.90625 -6.59375 L 8.65625 -6.59375 Z M 8.65625 -9.625 "/></g></g></g><g fill="#f6f4f0" fill-opacity="1"><g transform="translate(96.013922, 26.467102)"><g><path d="M 7.15625 -17.140625 C 8.707031 -17.140625 9.988281 -16.953125 11 -16.578125 C 12.007812 -16.203125 12.757812 -15.632812 13.25 -14.875 C 13.75 -14.113281 14 -13.15625 14 -12 C 14 -11.21875 13.847656 -10.535156 13.546875 -9.953125 C 13.253906 -9.367188 12.863281 -8.875 12.375 -8.46875 C 11.894531 -8.0625 11.375 -7.726562 10.8125 -7.46875 L 15.84375 0 L 11.8125 0 L 7.71875 -6.578125 L 5.796875 -6.578125 L 5.796875 0 L 2.15625 0 L 2.15625 -17.140625 Z M 6.890625 -14.15625 L 5.796875 -14.15625 L 5.796875 -9.53125 L 6.96875 -9.53125 C 8.164062 -9.53125 9.023438 -9.726562 9.546875 -10.125 C 10.066406 -10.53125 10.328125 -11.125 10.328125 -11.90625 C 10.328125 -12.71875 10.046875 -13.296875 9.484375 -13.640625 C 8.929688 -13.984375 8.066406 -14.15625 6.890625 -14.15625 Z M 6.890625 -14.15625 "/></g></g></g><g fill="#f6f4f0" fill-opacity="1"><g transform="translate(110.681648, 26.467102)"><g><path d="M 12.640625 0 L 11.40625 -4.078125 L 5.15625 -4.078125 L 3.921875 0 L 0 0 L 6.046875 -17.203125 L 10.484375 -17.203125 L 16.5625 0 Z M 10.53125 -7.125 L 9.296875 -11.109375 C 9.210938 -11.378906 9.109375 -11.722656 8.984375 -12.140625 C 8.859375 -12.554688 8.726562 -12.976562 8.59375 -13.40625 C 8.46875 -13.84375 8.363281 -14.222656 8.28125 -14.546875 C 8.207031 -14.222656 8.101562 -13.820312 7.96875 -13.34375 C 7.832031 -12.875 7.703125 -12.425781 7.578125 -12 C 7.453125 -11.582031 7.359375 -11.285156 7.296875 -11.109375 L 6.078125 -7.125 Z M 10.53125 -7.125 "/></g></g></g><g fill="#f6f4f0" fill-opacity="1"><g transform="translate(126.064217, 26.467102)"><g><path d="M 7.625 -17.140625 C 9.84375 -17.140625 11.457031 -16.660156 12.46875 -15.703125 C 13.488281 -14.753906 14 -13.453125 14 -11.796875 C 14 -11.046875 13.882812 -10.328125 13.65625 -9.640625 C 13.425781 -8.953125 13.054688 -8.34375 12.546875 -7.8125 C 12.035156 -7.28125 11.351562 -6.859375 10.5 -6.546875 C 9.644531 -6.242188 8.59375 -6.09375 7.34375 -6.09375 L 5.796875 -6.09375 L 5.796875 0 L 2.15625 0 L 2.15625 -17.140625 Z M 7.4375 -14.15625 L 5.796875 -14.15625 L 5.796875 -9.078125 L 6.984375 -9.078125 C 7.660156 -9.078125 8.25 -9.164062 8.75 -9.34375 C 9.25 -9.519531 9.632812 -9.800781 9.90625 -10.1875 C 10.1875 -10.570312 10.328125 -11.0625 10.328125 -11.65625 C 10.328125 -12.5 10.09375 -13.125 9.625 -13.53125 C 9.15625 -13.945312 8.425781 -14.15625 7.4375 -14.15625 Z M 7.4375 -14.15625 "/></g></g></g><g fill="#f6f4f0" fill-opacity="1"><g transform="translate(139.958507, 26.467102)"><g><path d="M 16.203125 0 L 12.578125 0 L 12.578125 -7.390625 L 5.796875 -7.390625 L 5.796875 0 L 2.15625 0 L 2.15625 -17.140625 L 5.796875 -17.140625 L 5.796875 -10.421875 L 12.578125 -10.421875 L 12.578125 -17.140625 L 16.203125 -17.140625 Z M 16.203125 0 "/></g></g></g><g fill="#f6f4f0" fill-opacity="1"><g transform="translate(157.14576, 26.467102)"><g><path d="M 7.484375 -10.078125 L 11.0625 -17.140625 L 14.984375 -17.140625 L 9.296875 -6.671875 L 9.296875 0 L 5.6875 0 L 5.6875 -6.546875 L 0 -17.140625 L 3.9375 -17.140625 Z M 7.484375 -10.078125 "/></g></g></g></g></g></svg>